<svg xmlns="http://www.w3.org/2000/svg" viewBox="0 0 1440 320">
        <path fill="#212529" fill-opacity="1" d="M0,320L20,277.3C40,235,80,149,120,128C160,107,200,149,240,186.7C280,224,320,256,360,240C400,224,440,160,480,149.3C520,139,560,181,600,213.3C640,245,680,267,720,245.3C760,224,800,160,840,122.7C880,85,920,75,960,74.7C1000,75,1040,85,1080,101.3C1120,117,1160,139,1200,170.7C1240,203,1280,245,1320,261.3C1360,277,1400,267,1420,261.3L1440,256L1440,0L1420,0C1400,0,1360,0,1320,0C1280,0,1240,0,1200,0C1160,0,1120,0,1080,0C1040,0,1000,0,960,0C920,0,880,0,840,0C800,0,760,0,720,0C680,0,640,0,600,0C560,0,520,0,480,0C440,0,400,0,360,0C320,0,280,0,240,0C200,0,160,0,120,0C80,0,40,0,20,0L0,0Z"></path>
      </svg>