<svg id="visual" viewBox="0 0 1920 30" width="1920" height="30" xmlns="http://www.w3.org/2000/svg" xmlns:xlink="http://www.w3.org/1999/xlink" version="1.1"><rect x="0" y="0" width="1920" height="30" fill="#fff"></rect><path d="M0 1L10.3 1.5C20.7 2 41.3 3 62 4.2C82.7 5.3 103.3 6.7 124 7.3C144.7 8 165.3 8 186 7.8C206.7 7.7 227.3 7.3 248 6.3C268.7 5.3 289.3 3.7 310 3.3C330.7 3 351.3 4 372 4.8C392.7 5.7 413.3 6.3 433.8 7.2C454.3 8 474.7 9 495.2 9.3C515.7 9.7 536.3 9.3 557 8.5C577.7 7.7 598.3 6.3 619 6.3C639.7 6.3 660.3 7.7 681 8C701.7 8.3 722.3 7.7 743 6.8C763.7 6 784.3 5 805 5.3C825.7 5.7 846.3 7.3 867 6.7C887.7 6 908.3 3 929 2.7C949.7 2.3 970.3 4.7 991 6.5C1011.7 8.3 1032.3 9.7 1053 8.8C1073.7 8 1094.3 5 1115 4.8C1135.7 4.7 1156.3 7.3 1177 8.5C1197.7 9.7 1218.3 9.3 1239 8.5C1259.7 7.7 1280.3 6.3 1301 5.5C1321.7 4.7 1342.3 4.3 1363 4.5C1383.7 4.7 1404.3 5.3 1424.8 4.7C1445.3 4 1465.7 2 1486.2 2.2C1506.7 2.3 1527.3 4.7 1548 4.8C1568.7 5 1589.3 3 1610 2C1630.7 1 1651.3 1 1672 0.8C1692.7 0.7 1713.3 0.3 1734 0.8C1754.7 1.3 1775.3 2.7 1796 4.2C1816.7 5.7 1837.3 7.3 1858 7.8C1878.7 8.3 1899.3 7.7 1909.7 7.3L1920 7L1920 0L1909.7 0C1899.3 0 1878.7 0 1858 0C1837.3 0 1816.7 0 1796 0C1775.3 0 1754.7 0 1734 0C1713.3 0 1692.7 0 1672 0C1651.3 0 1630.7 0 1610 0C1589.3 0 1568.7 0 1548 0C1527.3 0 1506.7 0 1486.2 0C1465.7 0 1445.3 0 1424.8 0C1404.3 0 1383.7 0 1363 0C1342.3 0 1321.7 0 1301 0C1280.3 0 1259.7 0 1239 0C1218.3 0 1197.7 0 1177 0C1156.3 0 1135.7 0 1115 0C1094.3 0 1073.7 0 1053 0C1032.3 0 1011.7 0 991 0C970.3 0 949.7 0 929 0C908.3 0 887.7 0 867 0C846.3 0 825.7 0 805 0C784.3 0 763.7 0 743 0C722.3 0 701.7 0 681 0C660.3 0 639.7 0 619 0C598.3 0 577.7 0 557 0C536.3 0 515.7 0 495.2 0C474.7 0 454.3 0 433.8 0C413.3 0 392.7 0 372 0C351.3 0 330.7 0 310 0C289.3 0 268.7 0 248 0C227.3 0 206.7 0 186 0C165.3 0 144.7 0 124 0C103.3 0 82.7 0 62 0C41.3 0 20.7 0 10.3 0L0 0Z" fill="#212529" stroke-linecap="round" stroke-linejoin="miter"></path></svg>